:SAMPLES-PER-SECOND 30
:FULLY-SPECIFIED
:DEGREES
599
root  12.7296 40.7218 8.66944 169.141 79.2916 168.609
RightUpLeg  -4.02123 -13.692 -10.1613
RightLeg  9.57129 -16.3374 1.93076
RightFoot  -0.421724 -0.0423095 0.41216
RightToes  0.000481921 0.542163 -0.142578
Spine  7.9435 -2.84468 -4.49277
Spine1  4.34501 -4.32393 5.11806
HEad  7.38919 1.91295 1.81123
LeftShoulder1  6.57283 -12.6977 -34.5133
LeftArm  -11.8429 -1.73487 -42.0947
LeftForeArm  167.128 -62.7415 -160.568
LeftHand  -0.25398 0.0180481 5.50724
RightShoulder  3.39809 6.37885 28.3982
RightArm  -5.81648 5.67773 42.8391
RightForeArm  150.354 68.3714 151.853
RightHand  -0.245906 -2.36666 -9.17232
LeftUpLeg  -3.8656 4.56053 3.34485
LeftLeg  1.03007 8.77732 -3.66766
LeftFoot  4.16928 0.218015 -1.78722
LeftToes  1.06247e-005 4.65869e-005 -8.65511e-006
600
root  12.316 40.696 8.70728 167.461 80.0618 167.575
RightUpLeg  -4.33476 -14.0394 -10.1158
RightLeg  9.85784 -15.1799 1.8501
RightFoot  -0.0133003 -0.0222834 0.224129
RightToes  0.000481921 0.542163 -0.142578
Spine  8.40226 -2.57755 -2.84714
Spine1  4.19148 -3.46537 2.86383
HEad  9.51508 0.980566 2.20102
LeftShoulder1  6.29144 -14.1961 -29.5059
LeftArm  -11.114 -24.5075 -42.0011
LeftForeArm  117.487 -77.5732 -109.389
LeftHand  -0.25398 0.0180481 5.50724
RightShoulder  3.3608 7.60689 24.1161
RightArm  -9.16285 28.303 43.7295
RightForeArm  73.7572 77.3824 70.1658
RightHand  -0.532713 -0.0851519 -10.9695
LeftUpLeg  -3.59686 4.71163 3.40423
LeftLeg  0.802958 9.42806 -3.807
LeftFoot  4.65741 0.200142 -1.62577
LeftToes  1.06247e-005 4.65869e-005 -8.65511e-006
601
root  11.7897 40.6438 8.74088 161.483 81.9736 162.586
RightUpLeg  -5.17666 -14.7687 -9.97119
RightLeg  10.8578 -12.3778 1.31129
RightFoot  0.385913 0.0112913 -0.0838329
RightToes  0.000481921 0.542163 -0.142578
Spine  10.6165 -1.51193 -0.534291
Spine1  2.71784 -1.58667 -0.0640928
HEad  11.7857 -0.849321 2.06005
LeftShoulder1  5.47173 -15.8186 -21.9696
LeftArm  -9.74803 -48.4675 -43.2734
LeftForeArm  22.526 -54.861 -12.9309
LeftHand  -0.25398 0.0180481 5.50724
RightShoulder  2.83493 8.41978 17.1503
RightArm  -15.5151 50.927 45.6318
RightForeArm  19.8468 44.0343 7.98756
RightHand  -1.44763 6.11228 -15.1135
LeftUpLeg  -3.15262 4.96191 3.38544
LeftLeg  1.03597 11.1901 -3.95578
LeftFoot  4.99729 0.180851 -1.47154
LeftToes  1.06247e-005 4.65869e-005 -8.65511e-006
602
root  11.369 40.6099 8.78609 154.97 83.4493 156.238
RightUpLeg  -6.48297 -15.0838 -9.70991
RightLeg  11.4842 -10.4985 0.998937
RightFoot  0.802482 0.0333135 -0.262307
RightToes  0.000481921 0.542163 -0.142578
Spine  13.4277 -0.596413 0.560524
Spine1  -0.300215 -0.34251 -1.10775
HEad  13.1161 -1.49127 0.945125
LeftShoulder1  3.8816 -16.1309 -12.5939
LeftArm  -4.78661 -64.8363 -47.126
LeftForeArm  16.5663 -19.1302 -3.60593
LeftHand  -0.25398 0.0180481 5.50724
RightShoulder  1.85669 8.09491 8.48685
RightArm  -22.9029 65.7447 50.1118
RightForeArm  25.6079 9.36557 0.481643
RightHand  -1.63813 8.06094 -14.4018
LeftUpLeg  -3.44391 5.13096 3.34118
LeftLeg  1.14153 12.7231 -4.16642
LeftFoot  5.39392 0.190378 -1.51666
LeftToes  1.06247e-005 4.65869e-005 -8.65511e-006
603
root  11.314 40.6523 8.81 157.975 83.2384 157.95
RightUpLeg  -7.2435 -14.0884 -9.59578
RightLeg  10.2424 -12.0247 1.79426
RightFoot  1.27583 0.0100428 -0.0138649
RightToes  0.000481921 0.542163 -0.142578
Spine  14.1823 -0.686933 -0.432285
Spine1  -3.54783 -0.954262 1.40377
HEad  13.6964 0.23787 -0.709702
LeftShoulder1  2.30187 -13.8661 -5.46188
LeftArm  -6.75714 -68.8956 -47.9695
LeftForeArm  23.5665 -8.93171 -5.23137
LeftHand  -0.25398 0.0180481 5.50724
RightShoulder  1.09252 6.62879 2.80143
RightArm  -22.2141 67.8171 54.8656
RightForeArm  28.0755 5.32333 -1.45046
RightHand  -1.11301 6.13567 -11.6553
LeftUpLeg  -4.58062 5.041 3.43084
LeftLeg  0.279949 12.6689 -4.41746
LeftFoot  5.89122 0.245391 -1.85546
LeftToes  1.06247e-005 4.65869e-005 -8.65511e-006
604
root  11.6283 40.7432 8.78292 167.262 82.0906 165.579
RightUpLeg  -6.64173 -12.2023 -9.56639
RightLeg  7.30035 -15.4721 3.31531
RightFoot  1.72623 -0.041625 0.466748
RightToes  0.000481921 0.542163 -0.142578
Spine  12.7363 -1.34534 -2.14366
Spine1  -5.52371 -2.33263 5.50463
HEad  14.353 2.28921 -1.55685
LeftShoulder1  1.80564 -10.8808 -4.75846
LeftArm  -2.13394 -60.4171 -48.6775
LeftForeArm  22.5641 -29.9197 -4.87189
LeftHand  -0.25398 0.0180481 5.50724
RightShoulder  1.19055 5.80543 4.90368
RightArm  -14.4236 56.7932 54.4581
RightForeArm  24.6273 34.4255 7.43059
RightHand  -0.986209 4.14241 -12.3981
LeftUpLeg  -5.4017 4.85957 3.72384
LeftLeg  -1.1828 11.5563 -4.539
LeftFoot  6.1441 0.314133 -2.28712
LeftToes  1.06247e-005 4.65869e-005 -8.65511e-006
605
root  12.063 40.8059 8.73363 171.403 81.5424 169.128
RightUpLeg  -5.25366 -11.5137 -9.3796
RightLeg  4.94412 -16.7074 4.13155
RightFoot  1.83618 -0.0646981 0.669548
RightToes  0.000481921 0.542163 -0.142578
Spine  11.0747 -1.5207 -3.0114
Spine1  -5.38127 -2.87525 7.89576
HEad  14.2621 2.46441 -1.39098
LeftShoulder1  2.34166 -10.1646 -9.70628
LeftArm  -9.55288 -42.4397 -46.7193
LeftForeArm  48.9769 -66.5184 -29.219
LeftHand  -0.25398 0.0180481 5.50724
RightShoulder  1.84954 6.35693 11.6575
RightArm  -11.3133 36.0485 47.9593
RightForeArm  52.6783 73.766 43.8521
RightHand  -0.281906 -2.39068 -7.82801
LeftUpLeg  -5.06502 4.7925 3.96627
LeftLeg  -1.97121 10.9297 -4.44848
LeftFoot  5.87967 0.330704 -2.41987
LeftToes  1.06247e-005 4.65869e-005 -8.65511e-006
606
root  12.426 40.8106 8.70126 169.516 81.9746 167.481
RightUpLeg  -4.60001 -11.3843 -9.41768
RightLeg  5.12994 -16.2221 3.76798
RightFoot  1.21707 -0.0535278 0.553427
RightToes  0.000481921 0.542163 -0.142578
Spine  11.0196 -1.28617 -2.92813
Spine1  -4.66364 -2.6985 8.05657
HEad  11.8238 2.23673 -1.56135
LeftShoulder1  3.22837 -10.4116 -16.499
LeftArm  -11.2751 -20.1447 -40.616
LeftForeArm  163.324 -73.2313 -148.077
LeftHand  -0.25398 0.0180481 5.50724
RightShoulder  2.22489 5.72233 17.6218
RightArm  -11.6436 13.2035 44.1735
RightForeArm  168.963 66.5538 159.726
RightHand  -0.0757181 -7.79957 2.33907
LeftUpLeg  -4.41231 4.76422 3.87941
LeftLeg  -1.3971 11.2809 -4.26026
LeftFoot  5.18116 0.282914 -2.1639
LeftToes  1.06247e-005 4.65869e-005 -8.65511e-006
607
root  12.7325 40.7656 8.67981 164.838 82.8357 162.862
RightUpLeg  -5.27322 -11.4815 -9.57844
RightLeg  7.21332 -15.1284 2.82548
RightFoot  0.0280738 -0.0519021 0.490916
RightToes  0.000481921 0.542163 -0.142578
Spine  11.957 -1.86504 -2.94776
Spine1  -4.56225 -3.23381 7.43747
HEad  7.85214 4.67666 -2.50315
LeftShoulder1  3.47448 -8.39202 -23.0342
LeftArm  -12.1555 5.98579 -33.1292
LeftForeArm  -177.449 -48.1315 -170.749
LeftHand  -0.25398 0.0180481 5.50724
RightShoulder  2.04265 3.56518 22.6962
RightArm  -10.7019 -8.34834 46.9015
RightForeArm  -177.965 46.4566 170.774
RightHand  -0.176369 -6.95079 9.63218
LeftUpLeg  -4.47864 4.85971 3.65932
LeftLeg  0.273021 12.0464 -4.10922
LeftFoot  4.0579 0.235209 -1.92307
LeftToes  1.06247e-005 4.65869e-005 -8.65511e-006
608
root  13.0335 40.7043 8.63454 155.956 84.5184 153.98
RightUpLeg  -6.27383 -12.1589 -9.54101
RightLeg  9.3651 -12.607 1.97538
RightFoot  -1.07823 -0.0628319 0.602402
RightToes  0.000481921 0.542163 -0.142578
Spine  11.9663 -3.10589 -4.00696
Spine1  -4.05133 -4.58559 7.20412
HEad  5.67204 9.43712 -3.07846
LeftShoulder1  2.57288 -4.04475 -27.8322
LeftArm  -13.675 31.1607 -28.4189
LeftForeArm  179.233 -37.1836 -172.834
LeftHand  -0.25398 0.0180481 5.50724
RightShoulder  1.81662 1.96298 27.0471
RightArm  -9.18226 -22.3103 50.219
RightForeArm  -178.083 39.1287 172.391
RightHand  0.0017453 -4.77684 9.62294
LeftUpLeg  -4.44968 5.27993 3.66729
LeftLeg  1.98397 13.391 -4.0692
LeftFoot  2.57746 0.233433 -2.04412
LeftToes  1.06247e-005 4.65869e-005 -8.65511e-006
